# xmcd
# 
# Track frame offsets:
#     150
#     17724
#     56715
#     80308
#     100090
#     162344
#     240466
#     276929
#     293193
#     324852
# 
# Disc length: 4736
# 
# Revision: 1
# Processed by: cddbd v1.5.2PL0 Copyright (c) Steve Scherf et al.
# Submitted via: fre:ac v1.0.31
# 
DISCID=7e127e0a
DTITLE=Jimi Hendrix - Songs For Groovy Children Disc 2
DYEAR=2019
DGENRE=Rock/Pop
TTITLE0=Auld Lang Syne
TTITLE1=Who Knows
TTITLE2=Fire
TTITLE3=Ezy Rider
TTITLE4=Machine Gun
TTITLE5=Stone Free
TTITLE6=Changes
TTITLE7=Messege To Love
TTITLE8=Stop
TTITLE9=Foxey Lady
EXTD=
EXTT0=
EXTT1=
EXTT2=
EXTT3=
EXTT4=
EXTT5=
EXTT6=
EXTT7=
EXTT8=
EXTT9=
PLAYORDER=
